<?xml version="1.0" encoding="UTF-8"?>
<svg width="12px" height="16px" viewBox="0 0 12 16" version="1.1" xmlns="http://www.w3.org/2000/svg" xmlns:xlink="http://www.w3.org/1999/xlink">
    <title>Shape</title>
    <g id="---&gt;-Sign-up-from-Desktop-device" stroke="none" stroke-width="1" fill="none" fill-rule="evenodd">
        <g id="User_DE__SignUp_step2" transform="translate(-250.000000, -305.000000)" fill="#28004B" fill-rule="nonzero">
            <g id="TABS" transform="translate(130.000000, 303.000000)">
                <g id="02" transform="translate(119.999981, 0.000000)">
                    <path d="M11.6084352,2.41106615 C11.3687721,2.29900533 11.086364,2.34261185 10.8903405,2.5218789 L9.85599937,3.45130668 C9.82786291,3.47672176 9.78541598,3.47657048 9.75742859,3.45100412 L8.35008372,2.17359404 C8.09555122,1.94213532 7.71021212,1.94213532 7.45567962,2.17359404 L6.04960183,3.4498317 C6.0213163,3.4754737 5.97857123,3.4754737 5.9502857,3.4498317 L4.54405885,2.17359404 C4.28952634,1.94217314 3.90418724,1.94217314 3.64965474,2.17359404 L2.24212354,3.45100412 C2.21394981,3.47657048 2.17139108,3.47668394 2.14306829,3.45126886 L1.10779553,2.5218789 C0.833138938,2.27400628 0.412470873,2.29900533 0.168224018,2.57773912 C0.058696782,2.70273439 -0.00122829314,2.86452857 1.9089031e-05,3.03176884 L1.9089031e-05,16.9682312 C-0.00242083195,17.3418176 0.293999596,17.6466851 0.66212142,17.6491812 C0.827027177,17.6503158 0.986454709,17.5893499 1.10965887,17.4781211 L2.14399996,16.5486933 C2.17213642,16.5232782 2.21458335,16.5234295 2.24257074,16.5489959 L3.64991561,17.826406 C3.90444811,18.0578647 4.28978721,18.0578647 4.54431971,17.826406 L5.95054657,16.5501683 C5.9788321,16.5245263 6.02157716,16.5245263 6.04986269,16.5501683 L7.45608955,17.8263681 C7.71065932,18.0577134 8.09596116,18.0577134 8.35049366,17.8263681 L9.75809939,16.5489581 C9.78627312,16.5233917 9.82883185,16.5232782 9.85715464,16.5486933 L10.8924274,17.4780833 C11.1671958,17.7258424 11.5878266,17.7006543 11.8319616,17.421807 C11.9413025,17.2969252 12.0011531,17.1353201 12.0000191,16.9682312 L12.0000191,3.03176884 C12.0034636,2.76404069 11.8494771,2.51991226 11.6084352,2.41106615 Z M2.27686923,7 L5.72316895,7 C5.87605944,7 6.00001909,7.223875 6.00001909,7.5 C6.00001909,7.776125 5.87605944,8 5.72316895,8 L2.27686923,8 C2.12397874,8 2.00001909,7.776125 2.00001909,7.5 C2.00001909,7.223875 2.12397874,7 2.27686923,7 Z M9.68871384,13 L2.31132433,13 C2.13940601,13 2.00001909,12.776125 2.00001909,12.5 C2.00001909,12.223875 2.13940601,12 2.31132433,12 L9.68871384,12 C9.86063217,12 10.0000191,12.223875 10.0000191,12.5 C10.0000191,12.776125 9.86063217,13 9.68871384,13 Z M9.68871384,10 L2.31132433,10 C2.13940601,10 2.00001909,9.776125 2.00001909,9.5 C2.00001909,9.223875 2.13940601,9 2.31132433,9 L9.68871384,9 C9.86063217,9 10.0000191,9.223875 10.0000191,9.5 C10.0000191,9.776125 9.86063217,10 9.68871384,10 Z" id="Shape"></path>
                </g>
            </g>
        </g>
    </g>
</svg>