<svg width="16" height="17" viewBox="0 0 16 17" fill="none" xmlns="http://www.w3.org/2000/svg">
<path d="M7.99967 1.70197C4.31967 1.70197 1.33301 4.68863 1.33301 8.36863C1.33301 12.0486 4.31967 15.0353 7.99967 15.0353C11.6797 15.0353 14.6663 12.0486 14.6663 8.36863C14.6663 4.68863 11.6797 1.70197 7.99967 1.70197ZM7.99967 13.702C5.05967 13.702 2.66634 11.3086 2.66634 8.36863C2.66634 5.42863 5.05967 3.0353 7.99967 3.0353C10.9397 3.0353 13.333 5.42863 13.333 8.36863C13.333 11.3086 10.9397 13.702 7.99967 13.702ZM7.33301 11.0353H8.66634V12.3686H7.33301V11.0353ZM8.40634 4.3953C7.03301 4.1953 5.81967 5.04197 5.45301 6.2553C5.33301 6.64197 5.62634 7.0353 6.03301 7.0353H6.16634C6.43967 7.0353 6.65967 6.84197 6.75301 6.58863C6.96634 5.9953 7.59967 5.58863 8.28634 5.7353C8.91967 5.86863 9.38634 6.48863 9.33301 7.1353C9.26634 8.02863 8.25301 8.22197 7.69967 9.0553C7.69967 9.06197 7.69301 9.06197 7.69301 9.06863C7.68634 9.08197 7.67967 9.08863 7.67301 9.10197C7.61301 9.20197 7.55301 9.3153 7.50634 9.4353C7.49967 9.4553 7.48634 9.46863 7.47967 9.48863C7.47301 9.50197 7.47301 9.5153 7.46634 9.5353C7.38634 9.76197 7.33301 10.0353 7.33301 10.3686H8.66634C8.66634 10.0886 8.73967 9.8553 8.85301 9.6553C8.86634 9.6353 8.87301 9.6153 8.88634 9.5953C8.93967 9.50197 9.00634 9.4153 9.07301 9.3353C9.07967 9.32863 9.08634 9.3153 9.09301 9.30863C9.15968 9.22863 9.23301 9.1553 9.31301 9.08197C9.95301 8.4753 10.8197 7.98197 10.6397 6.70863C10.4797 5.54863 9.56634 4.56863 8.40634 4.3953Z" fill="#A999B7"/>
</svg>
