<svg width="16" height="16" viewBox="0 0 16 16" fill="none" xmlns="http://www.w3.org/2000/svg">
<g clip-path="url(#clip0)">
<path d="M13.7496 0.203328L0.749618 7.70019C-0.325382 8.32206 -0.222257 9.91268 0.927743 10.3846L4.49962 11.8627V14.5002C4.49962 15.9502 6.34962 16.547 7.20587 15.3939L8.57462 13.5471L12.0715 14.9908C12.2559 15.0658 12.4496 15.1033 12.6434 15.1033C12.8996 15.1033 13.1527 15.0377 13.3809 14.9096C13.7809 14.6846 14.0559 14.2846 14.1277 13.8314L15.984 1.73145C16.1746 0.478327 14.8309 -0.418546 13.7496 0.203328V0.203328ZM5.99962 14.5002V12.4814L7.14337 12.9533L5.99962 14.5002ZM12.6434 13.6033L7.83712 11.6189L12.2184 5.29707C12.5527 4.81269 11.9215 4.2502 11.4777 4.63457L4.86837 10.3939L1.49962 9.00019L14.4996 1.5002L12.6434 13.6033Z" fill="#28004B"/>
</g>
<defs>
<clipPath id="clip0">
<rect width="16" height="16" fill="white"/>
</clipPath>
</defs>
</svg>
