<svg width="25" height="25" viewBox="0 0 25 25" fill="none" xmlns="http://www.w3.org/2000/svg">
<path d="M0 4C0 1.79086 1.79086 0 4 0H21C23.2091 0 25 1.79086 25 4V21C25 23.2091 23.2091 25 21 25H4C1.79086 25 0 23.2091 0 21V4Z" fill="white"/>
<path fill-rule="evenodd" clip-rule="evenodd" d="M4.62238 7.17399C3.84293 6.39135 3.84552 5.12502 4.62816 4.34557C5.4108 3.56611 6.67713 3.5687 7.45658 4.35134L12.5442 9.45977L17.6318 4.35134C18.4113 3.5687 19.6776 3.56611 20.4602 4.34557C21.2429 5.12502 21.2454 6.39135 20.466 7.17399L15.3669 12.294L20.4664 17.4144C21.2459 18.197 21.2433 19.4634 20.4606 20.2428C19.678 21.0223 18.4117 21.0197 17.6322 20.237L12.5442 15.1282L7.45616 20.237C6.67671 21.0197 5.41038 21.0223 4.62774 20.2428C3.8451 19.4634 3.84251 18.197 4.62197 17.4144L9.72152 12.294L4.62238 7.17399Z" fill="white"/>
<path d="M4.62816 4.34557L5.68665 5.40839L5.68665 5.40839L4.62816 4.34557ZM4.62238 7.17399L5.68521 6.1155L5.68521 6.1155L4.62238 7.17399ZM7.45658 4.35134L6.39376 5.40983L6.39375 5.40983L7.45658 4.35134ZM12.5442 9.45977L13.607 10.5183C13.3255 10.8009 12.9431 10.9598 12.5442 10.9598C12.1453 10.9598 11.7628 10.8009 11.4814 10.5183L12.5442 9.45977ZM17.6318 4.35134L18.6946 5.40983L18.6946 5.40983L17.6318 4.35134ZM20.466 7.17399L21.5288 8.23248L21.5288 8.23248L20.466 7.17399ZM15.3669 12.294L14.304 13.3525C13.7211 12.7672 13.7211 11.8208 14.304 11.2355L15.3669 12.294ZM20.4664 17.4144L21.5292 16.3559L21.5292 16.3559L20.4664 17.4144ZM20.4606 20.2428L19.4021 19.18L19.4021 19.18L20.4606 20.2428ZM17.6322 20.237L18.695 19.1786L18.695 19.1786L17.6322 20.237ZM12.5442 15.1282L11.4814 14.0697C11.7628 13.7871 12.1453 13.6282 12.5442 13.6282C12.9431 13.6282 13.3255 13.7871 13.607 14.0697L12.5442 15.1282ZM7.45616 20.237L6.39334 19.1786L6.39334 19.1786L7.45616 20.237ZM4.62774 20.2428L5.68623 19.18L5.68623 19.18L4.62774 20.2428ZM4.62197 17.4144L5.68479 18.4729L5.68479 18.4729L4.62197 17.4144ZM9.72152 12.294L10.7843 11.2355C11.3672 11.8208 11.3672 12.7672 10.7843 13.3525L9.72152 12.294ZM5.68665 5.40839C5.49099 5.60326 5.49034 5.91984 5.68521 6.1155L3.55956 8.23248C2.19552 6.86286 2.20004 4.64678 3.56967 3.28274L5.68665 5.40839ZM6.39375 5.40983C6.19889 5.21417 5.88231 5.21353 5.68665 5.40839L3.56967 3.28274C4.93929 1.9187 7.15536 1.92323 8.5194 3.29285L6.39375 5.40983ZM11.4814 10.5183L6.39376 5.40983L8.5194 3.29285L13.607 8.40127L11.4814 10.5183ZM11.4814 8.40127L16.569 3.29285L18.6946 5.40983L13.607 10.5183L11.4814 8.40127ZM16.569 3.29285C17.933 1.92323 20.1491 1.9187 21.5187 3.28274L19.4017 5.40839C19.2061 5.21353 18.8895 5.21417 18.6946 5.40983L16.569 3.29285ZM21.5187 3.28274C22.8883 4.64679 22.8929 6.86286 21.5288 8.23248L19.4032 6.1155C19.598 5.91984 19.5974 5.60325 19.4017 5.40839L21.5187 3.28274ZM21.5288 8.23248L16.4297 13.3525L14.304 11.2355L19.4032 6.1155L21.5288 8.23248ZM19.4036 18.4729L14.304 13.3525L16.4297 11.2355L21.5292 16.3559L19.4036 18.4729ZM19.4021 19.18C19.5978 18.9851 19.5985 18.6686 19.4036 18.4729L21.5292 16.3559C22.8933 17.7255 22.8888 19.9416 21.5191 21.3056L19.4021 19.18ZM18.695 19.1786C18.8899 19.3742 19.2065 19.3749 19.4021 19.18L21.5191 21.3056C20.1495 22.6697 17.9334 22.6652 16.5694 21.2955L18.695 19.1786ZM13.607 14.0697L18.695 19.1786L16.5694 21.2955L11.4814 16.1867L13.607 14.0697ZM13.607 16.1867L8.51898 21.2955L6.39334 19.1786L11.4814 14.0697L13.607 16.1867ZM8.51898 21.2955C7.15494 22.6652 4.93887 22.6697 3.56925 21.3056L5.68623 19.18C5.88189 19.3749 6.19847 19.3742 6.39334 19.1786L8.51898 21.2955ZM3.56925 21.3056C2.19962 19.9416 2.1951 17.7255 3.55914 16.3559L5.68479 18.4729C5.48992 18.6686 5.49057 18.9851 5.68623 19.18L3.56925 21.3056ZM3.55914 16.3559L8.6587 11.2355L10.7843 13.3525L5.68479 18.4729L3.55914 16.3559ZM5.68521 6.1155L10.7843 11.2355L8.6587 13.3525L3.55956 8.23248L5.68521 6.1155Z" fill="white"/>
<path fill-rule="evenodd" clip-rule="evenodd" d="M4.62477 7.40433C3.84399 6.62301 3.84443 5.35668 4.62574 4.5759C5.40706 3.79512 6.67339 3.79556 7.45417 4.57687L12.5442 9.6704L17.6342 4.57688C18.415 3.79556 19.6813 3.79512 20.4626 4.5759C21.244 5.35668 21.2444 6.62301 20.4636 7.40433L15.3716 12.4998L20.464 17.5957C21.2448 18.377 21.2444 19.6433 20.463 20.4241C19.6817 21.2049 18.4154 21.2045 17.6346 20.4231L12.5442 15.3292L7.45376 20.4231C6.67298 21.2045 5.40665 21.2049 4.62533 20.4241C3.84402 19.6433 3.84358 18.377 4.62436 17.5957L9.71674 12.4998L4.62477 7.40433Z" fill="#BFB3C9"/>
<path d="M4 1H21V-1H4V1ZM24 4V21H26V4H24ZM21 24H4V26H21V24ZM1 21V4H-1V21H1ZM4 24C2.34315 24 1 22.6569 1 21H-1C-1 23.7614 1.23858 26 4 26V24ZM24 21C24 22.6569 22.6569 24 21 24V26C23.7614 26 26 23.7614 26 21H24ZM21 1C22.6569 1 24 2.34315 24 4H26C26 1.23858 23.7614 -1 21 -1V1ZM4 -1C1.23858 -1 -1 1.23858 -1 4H1C1 2.34315 2.34315 1 4 1V-1Z" fill="#BFB3C9"/>
</svg>
