<svg width="105" height="25" viewBox="0 0 105 25" fill="none" xmlns="http://www.w3.org/2000/svg">
<path d="M25.6791 10.9107L24.1416 6.36257L15.2421 9.36923V0H10.437V9.36923L1.53344 6.36257L0 10.9107L8.79118 13.8812L3.59675 21.4722L7.55881 24.1858L12.7613 16.5788L18.337 24.1336L22.1987 21.2795L16.7675 13.9214L25.6791 10.9107Z" fill="#ABABAB" fill-opacity="0.6"/>
<path d="M44.0967 20.0948H35.6548V5.16983H44.0967V7.23315H38.0954V11.2956H43.7194V13.3388H38.0954V18.0234H44.0967V20.0948Z" fill="#ABABAB" fill-opacity="0.6"/>
<path d="M47.3247 20.0948V5.1698H49.7654V17.9993H56.0837V20.0908H47.3247V20.0948Z" fill="#ABABAB" fill-opacity="0.6"/>
<path d="M67.259 16.0449C67.259 17.3736 66.7813 18.4133 65.8179 19.168C64.8585 19.9227 63.5338 20.3 61.8478 20.3C60.1618 20.3 58.7769 20.0391 57.7051 19.5132V17.205C58.3875 17.5262 59.1101 17.7751 59.8728 17.9597C60.6395 18.1444 61.35 18.2367 62.0124 18.2367C62.9798 18.2367 63.6903 18.052 64.152 17.6867C64.6096 17.3174 64.8424 16.8277 64.8424 16.2055C64.8424 15.6475 64.6296 15.1738 64.2081 14.7885C63.7866 14.3991 62.9156 13.9415 61.5949 13.4116C60.2341 12.8616 59.2746 12.2314 58.7167 11.5249C58.1587 10.8184 57.8817 9.96738 57.8817 8.97185C57.8817 7.72744 58.3233 6.74797 59.2104 6.03344C60.0936 5.31891 61.2818 4.96164 62.7711 4.96164C64.2001 4.96164 65.6212 5.27475 67.0382 5.90097L66.2634 7.89202C64.9347 7.33405 63.7505 7.05305 62.7108 7.05305C61.92 7.05305 61.3219 7.22566 60.9125 7.56687C60.503 7.9121 60.2983 8.36571 60.2983 8.9277C60.2983 9.31708 60.3786 9.64624 60.5432 9.92322C60.7077 10.2002 60.9767 10.4611 61.35 10.706C61.7233 10.9509 62.3977 11.276 63.3692 11.6774C64.4651 12.1351 65.2679 12.5606 65.7777 12.954C66.2875 13.3474 66.6609 13.7929 66.9017 14.2907C67.1386 14.7845 67.259 15.3705 67.259 16.0449Z" fill="#ABABAB" fill-opacity="0.6"/>
<path d="M75.3038 20.0948H72.8632V7.26524H68.4756V5.17383H79.6954V7.26524H75.3078V20.0948H75.3038Z" fill="#ABABAB" fill-opacity="0.6"/>
<path d="M90.4214 20.0948H81.9795V5.1698H90.4214V7.23312H84.4201V11.2955H90.044V13.3388H84.4201V18.0234H90.4214V20.0948V20.0948Z" fill="#ABABAB" fill-opacity="0.6"/>
<path d="M96.0857 14.1336V20.0948H93.645V5.1698H97.86C99.7868 5.1698 101.212 5.53109 102.135 6.25365C103.058 6.97621 103.524 8.06407 103.524 9.52124C103.524 11.3798 102.557 12.7045 100.626 13.4913L104.841 20.0948H102.063L98.4902 14.1336H96.0857V14.1336ZM96.0857 12.1144H97.7797C98.9157 12.1144 99.7386 11.9017 100.248 11.4802C100.758 11.0587 101.015 10.4325 101.015 9.60153C101.015 8.75854 100.738 8.15239 100.188 7.78308C99.6383 7.41377 98.8073 7.23312 97.6994 7.23312H96.0857V12.1144V12.1144Z" fill="#ABABAB" fill-opacity="0.6"/>
</svg>
