<svg width="1em" height="1em" viewBox="0 0 16 17" fill="none" xmlns="http://www.w3.org/2000/svg">
<path fill-rule="evenodd" clip-rule="evenodd" d="M14.3796 6.18138L15.7313 7.47713C15.9837 7.71914 16.0671 8.09198 15.9438 8.427C15.8205 8.76196 15.5201 8.97843 15.1787 8.97843H14.0319V15.8736C14.0319 16.147 13.8212 16.3687 13.5614 16.3687H9.62677C9.3669 16.3687 9.15624 16.147 9.15624 15.8736V11.687H6.84371V15.8736C6.84371 16.147 6.63302 16.3686 6.37318 16.3686H2.4384C2.17853 16.3686 1.96787 16.147 1.96787 15.8736V8.9784H0.821339C0.47987 8.9784 0.179558 8.76196 0.056214 8.42697C-0.0670985 8.09198 0.0163077 7.71914 0.268683 7.47716L7.44737 0.595197C7.76234 0.293148 8.23749 0.293115 8.55259 0.59523L10.185 2.16012V1.8848C10.185 1.61139 10.3956 1.38976 10.6555 1.38976H13.9091C14.169 1.38976 14.3796 1.61142 14.3796 1.8848V6.18138ZM13.0909 8.48339C13.0909 8.20998 13.3016 7.98835 13.5614 7.98835H14.8673L13.5922 6.76595C13.4944 6.67211 13.4386 6.53932 13.4386 6.40002V2.37984H11.1261V3.28092C11.1261 3.47694 11.0161 3.65455 10.8456 3.73378C10.6752 3.81292 10.4764 3.77889 10.3386 3.64686L8.00002 1.40488L1.13265 7.98835H2.43837C2.69824 7.98835 2.9089 8.21001 2.9089 8.48339V15.3786H5.90265V11.192C5.90265 10.9186 6.11334 10.697 6.37318 10.697H9.6268C9.88665 10.697 10.0973 10.9186 10.0973 11.192V15.3786H13.0909V8.48339Z" fill="#A999B7"/>
</svg>
