<svg width="210" height="25" viewBox="0 0 210 25" fill="none" xmlns="http://www.w3.org/2000/svg">
<path opacity="0.6" d="M2.618 9.28V10.218H2.66C2.744 10.0873 2.85133 9.95667 2.982 9.826C3.122 9.686 3.29 9.56467 3.486 9.462C3.682 9.35 3.90133 9.26133 4.144 9.196C4.396 9.12133 4.676 9.084 4.984 9.084C5.46 9.084 5.89867 9.17733 6.3 9.364C6.70133 9.54133 7.04667 9.78867 7.336 10.106C7.62533 10.4233 7.84933 10.7967 8.008 11.226C8.16667 11.6553 8.246 12.1173 8.246 12.612C8.246 13.1067 8.16667 13.5733 8.008 14.012C7.85867 14.4413 7.63933 14.8193 7.35 15.146C7.07 15.4633 6.72467 15.72 6.314 15.916C5.91267 16.1027 5.45533 16.196 4.942 16.196C4.466 16.196 4.02733 16.098 3.626 15.902C3.234 15.706 2.93067 15.44 2.716 15.104H2.688V19.36H1.008V9.28H2.618ZM6.538 12.612C6.538 12.3507 6.496 12.094 6.412 11.842C6.33733 11.5807 6.22067 11.3473 6.062 11.142C5.90333 10.9367 5.70267 10.7733 5.46 10.652C5.21733 10.5213 4.93267 10.456 4.606 10.456C4.298 10.456 4.02267 10.5213 3.78 10.652C3.53733 10.7827 3.32733 10.9507 3.15 11.156C2.982 11.3613 2.85133 11.5947 2.758 11.856C2.674 12.1173 2.632 12.3787 2.632 12.64C2.632 12.9013 2.674 13.1627 2.758 13.424C2.85133 13.676 2.982 13.9047 3.15 14.11C3.32733 14.3153 3.53733 14.4833 3.78 14.614C4.02267 14.7353 4.298 14.796 4.606 14.796C4.93267 14.796 5.21733 14.7307 5.46 14.6C5.70267 14.4693 5.90333 14.3013 6.062 14.096C6.22067 13.8907 6.33733 13.6573 6.412 13.396C6.496 13.1347 6.538 12.8733 6.538 12.612ZM9.47538 12.612C9.47538 12.08 9.56871 11.5993 9.75538 11.17C9.95138 10.7313 10.2127 10.358 10.5394 10.05C10.866 9.742 11.2534 9.504 11.7014 9.336C12.1494 9.168 12.6254 9.084 13.1294 9.084C13.6334 9.084 14.1094 9.168 14.5574 9.336C15.0054 9.504 15.3927 9.742 15.7194 10.05C16.046 10.358 16.3027 10.7313 16.4894 11.17C16.6854 11.5993 16.7834 12.08 16.7834 12.612C16.7834 13.144 16.6854 13.6293 16.4894 14.068C16.3027 14.5067 16.046 14.8847 15.7194 15.202C15.3927 15.51 15.0054 15.7527 14.5574 15.93C14.1094 16.1073 13.6334 16.196 13.1294 16.196C12.6254 16.196 12.1494 16.1073 11.7014 15.93C11.2534 15.7527 10.866 15.51 10.5394 15.202C10.2127 14.8847 9.95138 14.5067 9.75538 14.068C9.56871 13.6293 9.47538 13.144 9.47538 12.612ZM11.1834 12.612C11.1834 12.8733 11.2207 13.1347 11.2954 13.396C11.3794 13.6573 11.5007 13.8907 11.6594 14.096C11.818 14.3013 12.0187 14.4693 12.2614 14.6C12.504 14.7307 12.7934 14.796 13.1294 14.796C13.4654 14.796 13.7547 14.7307 13.9974 14.6C14.24 14.4693 14.4407 14.3013 14.5994 14.096C14.758 13.8907 14.8747 13.6573 14.9494 13.396C15.0334 13.1347 15.0754 12.8733 15.0754 12.612C15.0754 12.3507 15.0334 12.094 14.9494 11.842C14.8747 11.5807 14.758 11.3473 14.5994 11.142C14.4407 10.9367 14.24 10.7733 13.9974 10.652C13.7547 10.5213 13.4654 10.456 13.1294 10.456C12.7934 10.456 12.504 10.5213 12.2614 10.652C12.0187 10.7733 11.818 10.9367 11.6594 11.142C11.5007 11.3473 11.3794 11.5807 11.2954 11.842C11.2207 12.094 11.1834 12.3507 11.1834 12.612ZM17.4603 9.28H19.2803L20.6803 14.096H20.7083L22.1503 9.28H23.9423L25.3983 14.096H25.4263L26.8543 9.28H28.6043L26.2803 16H24.5723L23.0463 11.296H23.0183L21.5063 16H19.7983L17.4603 9.28ZM34.3963 11.968C34.3963 11.7533 34.3636 11.548 34.2983 11.352C34.2423 11.156 34.1489 10.9833 34.0183 10.834C33.8876 10.6847 33.7196 10.568 33.5143 10.484C33.3183 10.3907 33.0849 10.344 32.8143 10.344C32.3103 10.344 31.8809 10.498 31.5263 10.806C31.1809 11.1047 30.9896 11.492 30.9523 11.968H34.3963ZM36.0763 12.724C36.0763 12.7987 36.0763 12.8733 36.0763 12.948C36.0763 13.0227 36.0716 13.0973 36.0623 13.172H30.9523C30.9709 13.4147 31.0316 13.6387 31.1343 13.844C31.2463 14.04 31.3909 14.2127 31.5683 14.362C31.7456 14.502 31.9463 14.614 32.1703 14.698C32.3943 14.782 32.6276 14.824 32.8703 14.824C33.2903 14.824 33.6449 14.7493 33.9343 14.6C34.2236 14.4413 34.4616 14.2267 34.6483 13.956L35.7683 14.852C35.1056 15.748 34.1443 16.196 32.8843 16.196C32.3616 16.196 31.8809 16.1167 31.4423 15.958C31.0036 15.79 30.6209 15.5567 30.2943 15.258C29.9769 14.9593 29.7249 14.5953 29.5383 14.166C29.3609 13.7273 29.2723 13.2327 29.2723 12.682C29.2723 12.1407 29.3609 11.6507 29.5383 11.212C29.7249 10.764 29.9769 10.386 30.2943 10.078C30.6116 9.76067 30.9849 9.518 31.4143 9.35C31.8529 9.17267 32.3243 9.084 32.8283 9.084C33.2949 9.084 33.7243 9.16333 34.1163 9.322C34.5176 9.47133 34.8629 9.7 35.1523 10.008C35.4416 10.3067 35.6656 10.6847 35.8243 11.142C35.9923 11.59 36.0763 12.1173 36.0763 12.724ZM37.7033 9.28H39.3133V10.4H39.3413C39.528 10.008 39.7893 9.69067 40.1253 9.448C40.4613 9.20533 40.8533 9.084 41.3013 9.084C41.3666 9.084 41.4366 9.08867 41.5113 9.098C41.586 9.098 41.6513 9.10733 41.7073 9.126V10.666C41.5953 10.638 41.4973 10.6193 41.4133 10.61C41.3386 10.6007 41.264 10.596 41.1893 10.596C40.8066 10.596 40.4986 10.666 40.2653 10.806C40.032 10.946 39.85 11.114 39.7193 11.31C39.5886 11.506 39.5 11.7067 39.4533 11.912C39.4066 12.1173 39.3833 12.2807 39.3833 12.402V16H37.7033V9.28ZM47.2888 11.968C47.2888 11.7533 47.2562 11.548 47.1908 11.352C47.1348 11.156 47.0415 10.9833 46.9108 10.834C46.7802 10.6847 46.6122 10.568 46.4068 10.484C46.2108 10.3907 45.9775 10.344 45.7068 10.344C45.2028 10.344 44.7735 10.498 44.4188 10.806C44.0735 11.1047 43.8822 11.492 43.8448 11.968H47.2888ZM48.9688 12.724C48.9688 12.7987 48.9688 12.8733 48.9688 12.948C48.9688 13.0227 48.9642 13.0973 48.9548 13.172H43.8448C43.8635 13.4147 43.9242 13.6387 44.0268 13.844C44.1388 14.04 44.2835 14.2127 44.4608 14.362C44.6382 14.502 44.8388 14.614 45.0628 14.698C45.2868 14.782 45.5202 14.824 45.7628 14.824C46.1828 14.824 46.5375 14.7493 46.8268 14.6C47.1162 14.4413 47.3542 14.2267 47.5408 13.956L48.6608 14.852C47.9982 15.748 47.0368 16.196 45.7768 16.196C45.2542 16.196 44.7735 16.1167 44.3348 15.958C43.8962 15.79 43.5135 15.5567 43.1868 15.258C42.8695 14.9593 42.6175 14.5953 42.4308 14.166C42.2535 13.7273 42.1648 13.2327 42.1648 12.682C42.1648 12.1407 42.2535 11.6507 42.4308 11.212C42.6175 10.764 42.8695 10.386 43.1868 10.078C43.5042 9.76067 43.8775 9.518 44.3068 9.35C44.7455 9.17267 45.2168 9.084 45.7208 9.084C46.1875 9.084 46.6168 9.16333 47.0088 9.322C47.4102 9.47133 47.7555 9.7 48.0448 10.008C48.3342 10.3067 48.5582 10.6847 48.7168 11.142C48.8848 11.59 48.9688 12.1173 48.9688 12.724ZM57.4279 16H55.8319V14.992H55.8039C55.5706 15.384 55.2439 15.6827 54.8239 15.888C54.4132 16.0933 53.9699 16.196 53.4939 16.196C52.9806 16.196 52.5186 16.1027 52.1079 15.916C51.7066 15.72 51.3612 15.4633 51.0719 15.146C50.7919 14.8193 50.5726 14.4413 50.4139 14.012C50.2646 13.5733 50.1899 13.1067 50.1899 12.612C50.1899 12.1173 50.2692 11.6553 50.4279 11.226C50.5866 10.7967 50.8106 10.4233 51.0999 10.106C51.3892 9.78867 51.7346 9.54133 52.1359 9.364C52.5372 9.17733 52.9759 9.084 53.4519 9.084C53.7599 9.084 54.0352 9.12133 54.2779 9.196C54.5206 9.26133 54.7306 9.34533 54.9079 9.448C55.0946 9.55067 55.2532 9.66267 55.3839 9.784C55.5146 9.90533 55.6219 10.022 55.7059 10.134H55.7479V5.416H57.4279V16ZM51.8979 12.612C51.8979 12.8733 51.9352 13.1347 52.0099 13.396C52.0939 13.6573 52.2152 13.8907 52.3739 14.096C52.5326 14.3013 52.7332 14.4693 52.9759 14.6C53.2186 14.7307 53.5032 14.796 53.8299 14.796C54.1379 14.796 54.4132 14.7353 54.6559 14.614C54.8986 14.4833 55.1039 14.3153 55.2719 14.11C55.4492 13.9047 55.5799 13.676 55.6639 13.424C55.7572 13.1627 55.8039 12.9013 55.8039 12.64C55.8039 12.3787 55.7572 12.1173 55.6639 11.856C55.5799 11.5947 55.4492 11.3613 55.2719 11.156C55.1039 10.9507 54.8986 10.7827 54.6559 10.652C54.4132 10.5213 54.1379 10.456 53.8299 10.456C53.5032 10.456 53.2186 10.5213 52.9759 10.652C52.7332 10.7733 52.5326 10.9367 52.3739 11.142C52.2152 11.3473 52.0939 11.5807 52.0099 11.842C51.9352 12.094 51.8979 12.3507 51.8979 12.612ZM64.6769 5.416V10.134H64.7189C64.8029 10.022 64.9103 9.90533 65.0409 9.784C65.1716 9.66267 65.3256 9.55067 65.5029 9.448C65.6896 9.34533 65.9043 9.26133 66.1469 9.196C66.3896 9.12133 66.6649 9.084 66.9729 9.084C67.4489 9.084 67.8876 9.17733 68.2889 9.364C68.6903 9.54133 69.0356 9.78867 69.3249 10.106C69.6143 10.4233 69.8383 10.7967 69.9969 11.226C70.1556 11.6553 70.2349 12.1173 70.2349 12.612C70.2349 13.1067 70.1556 13.5733 69.9969 14.012C69.8476 14.4413 69.6283 14.8193 69.3389 15.146C69.0589 15.4633 68.7136 15.72 68.3029 15.916C67.9016 16.1027 67.4443 16.196 66.9309 16.196C66.4549 16.196 66.0069 16.0933 65.5869 15.888C65.1763 15.6827 64.8543 15.384 64.6209 14.992H64.5929V16H62.9969V5.416H64.6769ZM68.5269 12.612C68.5269 12.3507 68.4849 12.094 68.4009 11.842C68.3263 11.5807 68.2096 11.3473 68.0509 11.142C67.8923 10.9367 67.6916 10.7733 67.4489 10.652C67.2063 10.5213 66.9216 10.456 66.5949 10.456C66.2869 10.456 66.0116 10.5213 65.7689 10.652C65.5263 10.7827 65.3163 10.9507 65.1389 11.156C64.9709 11.3613 64.8403 11.5947 64.7469 11.856C64.6629 12.1173 64.6209 12.3787 64.6209 12.64C64.6209 12.9013 64.6629 13.1627 64.7469 13.424C64.8403 13.676 64.9709 13.9047 65.1389 14.11C65.3163 14.3153 65.5263 14.4833 65.7689 14.614C66.0116 14.7353 66.2869 14.796 66.5949 14.796C66.9216 14.796 67.2063 14.7307 67.4489 14.6C67.6916 14.4693 67.8923 14.3013 68.0509 14.096C68.2096 13.8907 68.3263 13.6573 68.4009 13.396C68.4849 13.1347 68.5269 12.8733 68.5269 12.612ZM70.8477 9.28H72.7097L74.5857 14.166H74.6137L76.2797 9.28H78.0297L74.8517 17.442C74.7303 17.75 74.5997 18.0207 74.4597 18.254C74.3197 18.4967 74.1517 18.6973 73.9557 18.856C73.7597 19.024 73.5263 19.15 73.2557 19.234C72.9943 19.318 72.677 19.36 72.3037 19.36C72.1637 19.36 72.019 19.3507 71.8697 19.332C71.7297 19.3227 71.585 19.2993 71.4357 19.262L71.5757 17.806C71.6877 17.8433 71.795 17.8667 71.8977 17.876C72.0097 17.8947 72.1123 17.904 72.2057 17.904C72.383 17.904 72.5323 17.8807 72.6537 17.834C72.775 17.7967 72.8777 17.7313 72.9617 17.638C73.0457 17.554 73.1203 17.4467 73.1857 17.316C73.251 17.1853 73.321 17.0313 73.3957 16.854L73.7317 16L70.8477 9.28Z" fill="white"/>
<g opacity="0.6">
<path d="M95.5811 15.8425C95.1565 16.4886 94.5842 16.9686 93.8642 17.3009C93.1443 17.6332 92.3874 17.7993 91.5936 17.7993C90.7259 17.7993 89.9321 17.6332 89.2491 17.3193C88.566 17.0055 87.9753 16.5625 87.4953 16.0271C87.0153 15.4733 86.6461 14.8456 86.3877 14.1257C86.1292 13.4057 86 12.6304 86 11.8181C86 11.0058 86.1292 10.2305 86.4061 9.51052C86.6646 8.79055 87.0523 8.14443 87.5322 7.60908C88.0122 7.07372 88.6029 6.64912 89.286 6.33529C89.969 6.02146 90.7444 5.87378 91.5751 5.87378C92.4243 5.87378 93.1627 6.03992 93.8273 6.39068C94.4919 6.74143 95.0088 7.18448 95.4149 7.71984H95.4703V6.15069H98.2763V17.5224H95.6364V15.861H95.5811V15.8425ZM88.806 11.8181C88.806 12.2981 88.8799 12.7596 89.0275 13.2211C89.1752 13.6642 89.3967 14.0518 89.6737 14.3841C89.969 14.7164 90.3198 14.9933 90.7444 15.1779C91.169 15.381 91.6489 15.4733 92.1843 15.4733C92.7012 15.4733 93.1627 15.381 93.5873 15.1779C94.0119 14.9749 94.3627 14.7164 94.6765 14.3841C94.9719 14.0518 95.2118 13.6642 95.378 13.2211C95.5441 12.778 95.618 12.2981 95.618 11.7996C95.618 11.3197 95.5441 10.8581 95.378 10.3966C95.2118 9.95357 94.9719 9.5659 94.6765 9.23361C94.3811 8.90132 94.0119 8.62441 93.5873 8.4398C93.1627 8.23674 92.7012 8.14443 92.1843 8.14443C91.6305 8.14443 91.1505 8.23674 90.7444 8.4398C90.3198 8.64287 89.969 8.90132 89.6737 9.23361C89.3783 9.5659 89.1752 9.95357 89.0275 10.3966C88.8799 10.8766 88.806 11.3381 88.806 11.8181Z" fill="white"/>
<path d="M108.706 9.38139C108.485 9.06756 108.153 8.80911 107.728 8.58758C107.285 8.38451 106.842 8.27375 106.399 8.27375C105.882 8.27375 105.439 8.38451 105.033 8.58758C104.645 8.79065 104.313 9.06756 104.054 9.41831C103.796 9.76906 103.611 10.1567 103.482 10.5813C103.353 11.0059 103.298 11.449 103.298 11.8736C103.298 12.3166 103.371 12.7412 103.501 13.1658C103.63 13.5904 103.833 13.9781 104.091 14.3288C104.35 14.6796 104.682 14.9565 105.088 15.1596C105.494 15.3626 105.956 15.4734 106.491 15.4734C106.934 15.4734 107.359 15.3811 107.802 15.2149C108.245 15.0488 108.596 14.7903 108.854 14.4581L110.608 16.2487C110.146 16.7472 109.537 17.1348 108.817 17.4117C108.097 17.6887 107.303 17.8179 106.454 17.8179C105.624 17.8179 104.848 17.6887 104.091 17.4117C103.353 17.1533 102.707 16.7472 102.153 16.2487C101.599 15.7318 101.156 15.1042 100.842 14.3657C100.528 13.6273 100.362 12.7966 100.362 11.8551C100.362 10.9505 100.528 10.1198 100.842 9.39985C101.156 8.66142 101.599 8.03376 102.135 7.51687C102.688 6.99997 103.316 6.59384 104.036 6.31693C104.756 6.04002 105.531 5.89233 106.362 5.89233C107.193 5.89233 107.987 6.04002 108.762 6.35385C109.537 6.66768 110.146 7.09227 110.608 7.64609L108.706 9.38139Z" fill="white"/>
<path d="M119.395 9.38139C119.174 9.06756 118.841 8.80911 118.417 8.58758C117.974 8.38451 117.531 8.27375 117.088 8.27375C116.571 8.27375 116.128 8.38451 115.722 8.58758C115.334 8.79065 115.002 9.06756 114.743 9.41831C114.485 9.76906 114.3 10.1567 114.171 10.5813C114.042 11.0059 113.986 11.449 113.986 11.8736C113.986 12.3166 114.06 12.7412 114.189 13.1658C114.319 13.5904 114.522 13.9781 114.78 14.3288C115.039 14.6796 115.371 14.9565 115.777 15.1596C116.183 15.3626 116.645 15.4734 117.18 15.4734C117.623 15.4734 118.048 15.3811 118.491 15.2149C118.934 15.0488 119.284 14.7903 119.543 14.4581L121.297 16.2487C120.835 16.7472 120.226 17.1348 119.506 17.4117C118.786 17.6887 117.992 17.8179 117.143 17.8179C116.312 17.8179 115.537 17.6887 114.78 17.4117C114.042 17.1533 113.396 16.7472 112.842 16.2487C112.288 15.7318 111.845 15.1042 111.531 14.3657C111.217 13.6273 111.051 12.7966 111.051 11.8551C111.051 10.9505 111.217 10.1198 111.531 9.39985C111.845 8.66142 112.288 8.03376 112.823 7.51687C113.377 6.99997 114.005 6.59384 114.725 6.31693C115.445 6.04002 116.22 5.89233 117.051 5.89233C117.881 5.89233 118.675 6.04002 119.451 6.35385C120.226 6.66768 120.835 7.09227 121.297 7.64609L119.395 9.38139Z" fill="white"/>
<path d="M121.721 11.8366C121.721 10.9505 121.888 10.1382 122.201 9.41825C122.515 8.69829 122.958 8.07063 123.494 7.55373C124.047 7.03684 124.694 6.6307 125.432 6.35379C126.189 6.07688 126.983 5.9292 127.832 5.9292C128.681 5.9292 129.475 6.07688 130.232 6.35379C130.989 6.6307 131.635 7.03684 132.17 7.55373C132.724 8.07063 133.149 8.69829 133.462 9.41825C133.776 10.1382 133.942 10.9505 133.942 11.8366C133.942 12.7227 133.776 13.535 133.462 14.2734C133.149 15.0118 132.705 15.6395 132.17 16.1564C131.616 16.6733 130.97 17.0979 130.232 17.3932C129.493 17.6886 128.681 17.8363 127.832 17.8363C126.983 17.8363 126.189 17.6886 125.432 17.3932C124.675 17.0979 124.029 16.6917 123.494 16.1564C122.94 15.6395 122.515 15.0118 122.201 14.2734C121.888 13.5534 121.721 12.7412 121.721 11.8366ZM124.583 11.8366C124.583 12.2796 124.657 12.7042 124.786 13.1473C124.915 13.5903 125.118 13.978 125.377 14.3103C125.635 14.6611 125.986 14.938 126.392 15.1595C126.798 15.381 127.278 15.4918 127.85 15.4918C128.404 15.4918 128.903 15.381 129.309 15.1595C129.715 14.938 130.047 14.6611 130.324 14.3103C130.583 13.9596 130.786 13.5719 130.915 13.1473C131.044 12.7042 131.118 12.2796 131.118 11.8366C131.118 11.3935 131.044 10.9689 130.915 10.5443C130.786 10.1198 130.583 9.73208 130.324 9.38133C130.066 9.03058 129.715 8.75367 129.309 8.5506C128.903 8.34754 128.423 8.23677 127.85 8.23677C127.297 8.23677 126.798 8.34754 126.392 8.5506C125.986 8.75367 125.654 9.03058 125.377 9.38133C125.118 9.73208 124.915 10.1198 124.786 10.5443C124.657 10.9689 124.583 11.412 124.583 11.8366Z" fill="white"/>
<path d="M146.292 17.5224H143.616V15.7133H143.56C143.302 16.2671 142.877 16.7656 142.268 17.2086C141.659 17.6332 140.92 17.8547 140.071 17.8547C139.333 17.8547 138.705 17.7255 138.188 17.4671C137.671 17.2086 137.228 16.8763 136.896 16.4517C136.564 16.0271 136.305 15.5472 136.157 14.9933C136.01 14.4395 135.917 13.8857 135.917 13.3134V6.26147H138.723V12.5012C138.723 12.8334 138.742 13.1657 138.797 13.535C138.853 13.8857 138.945 14.218 139.111 14.5134C139.259 14.8087 139.48 15.0487 139.757 15.2333C140.034 15.4179 140.385 15.5102 140.846 15.5102C141.29 15.5102 141.677 15.4179 142.009 15.2333C142.342 15.0487 142.619 14.8272 142.822 14.5503C143.025 14.2734 143.191 13.9411 143.302 13.5719C143.412 13.2027 143.468 12.8334 143.468 12.4642V6.26147H146.274V17.5224H146.292Z" fill="white"/>
<path d="M149.024 6.26149H151.701V8.07063H151.757C152.015 7.51681 152.44 7.01837 153.049 6.57532C153.658 6.15073 154.396 5.9292 155.246 5.9292C155.984 5.9292 156.612 6.05842 157.129 6.31687C157.646 6.57532 158.089 6.90761 158.421 7.3322C158.753 7.7568 159.012 8.23677 159.159 8.79059C159.307 9.34441 159.399 9.89823 159.399 10.4705V17.504H156.593V11.2828C156.593 10.9505 156.575 10.6182 156.519 10.249C156.464 9.89823 156.372 9.56594 156.206 9.27057C156.058 8.9752 155.836 8.73521 155.559 8.5506C155.283 8.366 154.913 8.27369 154.47 8.27369C154.009 8.27369 153.621 8.366 153.307 8.5506C152.975 8.73521 152.717 8.95674 152.495 9.23365C152.292 9.51056 152.126 9.84285 152.015 10.2121C151.904 10.5813 151.849 10.9505 151.849 11.3197V17.504H149.043V6.26149H149.024Z" fill="white"/>
<path d="M160.47 8.51359V6.26139H162.445V3.01233H165.214V6.26139H168.02V8.51359H165.196V13.7379C165.196 14.2364 165.288 14.661 165.473 14.9748C165.657 15.3071 166.064 15.4732 166.673 15.4732C166.857 15.4732 167.06 15.4548 167.282 15.4178C167.503 15.3809 167.688 15.3255 167.873 15.2332L167.965 17.4485C167.707 17.5408 167.411 17.6147 167.079 17.67C166.728 17.7254 166.414 17.7439 166.1 17.7439C165.344 17.7439 164.734 17.6331 164.273 17.4301C163.811 17.227 163.424 16.9316 163.165 16.5624C162.888 16.1932 162.704 15.7686 162.611 15.2886C162.501 14.8087 162.464 14.2918 162.464 13.7564V8.51359H160.47Z" fill="white"/>
<path d="M170.937 16.9315C170.439 16.4885 170.199 15.8793 170.199 15.1039C170.199 14.4762 170.402 13.9593 170.79 13.5532C171.196 13.1471 171.657 12.8333 172.211 12.5933C172.765 12.3533 173.485 12.1133 174.371 11.8364C175.276 11.5779 175.959 11.3195 176.402 11.098C176.845 10.8764 177.066 10.5811 177.066 10.1934V8.90114C177.066 8.08888 176.863 7.53506 176.476 7.23969C176.069 6.94432 175.516 6.79664 174.796 6.79664C173.651 6.79664 172.839 7.05508 172.377 7.55352C172.71 7.62736 172.968 7.77505 173.19 7.99657C173.411 8.2181 173.522 8.49501 173.522 8.8273C173.522 9.17805 173.393 9.45496 173.134 9.65803C172.876 9.8611 172.543 9.9534 172.137 9.9534C171.676 9.9534 171.344 9.82417 171.104 9.58419C170.882 9.3442 170.753 9.04883 170.753 8.69808C170.753 8.36579 170.845 8.08888 171.03 7.86735C171.214 7.64582 171.491 7.4243 171.879 7.20277C172.267 6.96278 172.765 6.77818 173.374 6.61203C173.983 6.46435 174.63 6.3905 175.349 6.3905C176.623 6.3905 177.583 6.64895 178.229 7.16585C178.635 7.47968 178.912 7.86735 179.042 8.32887C179.171 8.79038 179.245 9.38112 179.245 10.1195V15.9531C179.245 16.3038 179.3 16.5623 179.411 16.71C179.522 16.8577 179.725 16.9315 180.002 16.9315C180.205 16.9315 180.389 16.8946 180.555 16.8207C180.722 16.7469 180.906 16.6361 181.109 16.4885L181.386 16.8392C180.962 17.1161 180.592 17.3192 180.297 17.4299C180.002 17.5407 179.614 17.6145 179.152 17.6145C178.377 17.6145 177.823 17.4484 177.509 17.1161C177.196 16.7838 177.048 16.3223 177.048 15.75C176.549 16.4515 175.996 16.9315 175.368 17.2084C174.74 17.4853 174.02 17.6145 173.208 17.6145C172.193 17.5961 171.436 17.3746 170.937 16.9315ZM177.066 15.1593V11.061C176.919 11.2641 176.716 11.4118 176.457 11.541C176.199 11.6702 175.793 11.8364 175.257 12.0394C174.63 12.261 174.131 12.4825 173.762 12.6856C173.374 12.8886 173.042 13.1655 172.765 13.5163C172.488 13.867 172.34 14.3101 172.34 14.8639C172.34 15.4916 172.525 15.9716 172.876 16.2854C173.227 16.5992 173.706 16.7654 174.297 16.7654C175.386 16.7654 176.309 16.23 177.066 15.1593Z" fill="white"/>
<path d="M192.001 7.83024C192.85 8.80866 193.293 10.2117 193.293 12.0577C193.293 13.2761 193.053 14.3099 192.555 15.1591C192.056 16.0083 191.41 16.6544 190.579 17.079C189.749 17.5036 188.844 17.7251 187.829 17.7251C187.219 17.7251 186.647 17.6144 186.075 17.4113C185.521 17.2082 185.023 16.8944 184.598 16.5067L182.863 17.762L182.438 17.6144C182.549 17.2636 182.604 16.8575 182.604 16.396V3.54738C182.604 2.90126 182.457 2.43975 182.18 2.14438C181.903 1.84901 181.423 1.70132 180.74 1.70132V1.27673C181.257 1.31365 181.774 1.33211 182.254 1.33211C183.287 1.33211 184.136 1.23981 184.801 1.03674V8.60559C185.152 7.88563 185.669 7.33181 186.352 6.94413C187.035 6.55646 187.792 6.3534 188.622 6.3534C190.025 6.37186 191.152 6.85183 192.001 7.83024ZM190.099 15.9898C190.653 15.1406 190.912 13.8299 190.912 12.0577C190.912 10.3593 190.672 9.08556 190.173 8.23638C189.675 7.40565 188.936 6.98106 187.921 6.98106C187.238 6.98106 186.61 7.20258 186.038 7.6641C185.466 8.12561 185.06 8.75327 184.82 9.584V16.2298C185.189 16.5621 185.632 16.8206 186.112 16.9867C186.592 17.1528 187.109 17.2452 187.626 17.2452C188.733 17.2636 189.545 16.839 190.099 15.9898Z" fill="white"/>
<path d="M197.65 15.51C197.65 16.0823 197.779 16.47 198.074 16.6915C198.351 16.913 198.831 17.0238 199.514 17.0238V17.4484C198.019 17.393 197.022 17.3561 196.561 17.3561C196.081 17.3561 195.102 17.393 193.607 17.4484V17.0053C194.29 17.0053 194.77 16.8946 195.047 16.673C195.324 16.4515 195.471 16.0638 195.471 15.4916V3.5291C195.471 2.88298 195.324 2.42147 195.047 2.1261C194.77 1.83073 194.29 1.68304 193.607 1.68304V1.23999C194.105 1.27691 194.622 1.29537 195.121 1.29537C196.154 1.29537 197.004 1.20307 197.668 1V15.51H197.65Z" fill="white"/>
<path d="M210 14.9375C209.705 15.7129 209.151 16.359 208.357 16.9128C207.545 17.4666 206.566 17.7436 205.44 17.7436C204.277 17.7436 203.28 17.522 202.431 17.0605C201.582 16.599 200.936 15.9713 200.493 15.1591C200.05 14.3468 199.828 13.3869 199.828 12.3161C199.828 11.0977 200.05 10.0455 200.511 9.15938C200.973 8.27327 201.619 7.57177 202.45 7.09179C203.28 6.61181 204.259 6.37183 205.366 6.37183C206.843 6.37183 207.969 6.7595 208.763 7.51638C209.557 8.27327 209.945 9.43629 209.945 10.987H202.283C202.228 11.3746 202.21 11.8177 202.21 12.3346C202.21 13.2576 202.376 14.0514 202.726 14.7529C203.077 15.436 203.539 15.9713 204.129 16.3405C204.702 16.7098 205.311 16.8944 205.957 16.8944C206.732 16.8944 207.434 16.7282 208.043 16.4144C208.652 16.1006 209.151 15.5467 209.557 14.8083L210 14.9375ZM203.243 7.71945C202.69 8.36557 202.339 9.30706 202.21 10.5624H207.545C207.582 9.47321 207.397 8.56864 206.991 7.83021C206.585 7.11025 205.994 6.74104 205.219 6.74104C204.462 6.7595 203.797 7.09179 203.243 7.71945Z" fill="white"/>
</g>
</svg>
